HIERARCHY
ROOT Hips
{
  OFFSET 0.0 0.0 0.0
  CHANNELS 6 XPOSITION YPOSITION ZPOSITION ZROTATION XROTATION YROTATION 
  JOINT RightUpLeg
  {
    OFFSET -0.089458 -0.0866707 0.00101652
    CHANNELS 3 ZROTATION XROTATION YROTATION 
    JOINT RightLeg
    {
      OFFSET 0.0 -0.444227 0.013727
      CHANNELS 3 ZROTATION XROTATION YROTATION 
      JOINT RightFoot
      {
        OFFSET 0.00253549 -0.420924 -0.0146059
        CHANNELS 3 ZROTATION XROTATION YROTATION 
        End Site
        {
          OFFSET 0.0004 -0.0441509 0.084991
        }
      }
    }
  }
  JOINT Spine
  {
    OFFSET 0.0 0.118905 0.0
    CHANNELS 3 ZROTATION XROTATION YROTATION 
    JOINT Spine1
    {
      OFFSET 0.0 0.256574 0.00127663
      CHANNELS 3 ZROTATION XROTATION YROTATION 
      End Site
      {
        OFFSET -0.0029 0.2150836 0.02525291
      }
      JOINT RightArm
      {
        OFFSET -0.162727 -0.05365632 0.00102123
        CHANNELS 3 ZROTATION XROTATION YROTATION 
        JOINT RightForeArm
        {
          OFFSET -0.26364 0.00099144 -0.0142434
          CHANNELS 3 ZROTATION XROTATION YROTATION 
          End Site
          {
            OFFSET -0.220324 0.00085362 0.0102216
          }
        }
      }
      JOINT LeftArm
      {
        OFFSET 0.162727 -0.0536563199 0.00102123
        CHANNELS 3 ZROTATION XROTATION YROTATION 
        JOINT LeftForeArm
        {
          OFFSET 0.262597 0.00099144 -0.0142434
          CHANNELS 3 ZROTATION XROTATION YROTATION 
          End Site
          {
            OFFSET 0.220902 0.00085362 0.0102216
          }
        }
      }
    }
  }
  JOINT LeftUpLeg
  {
    OFFSET 0.089458 -0.0866707 0.00101652
    CHANNELS 3 ZROTATION XROTATION YROTATION 
    JOINT LeftLeg
    {
      OFFSET 0.0 -0.444227 0.013727
      CHANNELS 3 ZROTATION XROTATION YROTATION 
      JOINT LeftFoot
      {
        OFFSET -0.00253549 -0.420924 -0.0146059
        CHANNELS 3 ZROTATION XROTATION YROTATION 
        End Site
        {
          OFFSET -0.0004 -0.0441509 0.084991
        }
      }
    }
  }
}
MOTION
Frames: 15
Frame Time: 0.033333
1.61474 0.980521837652 0.0205249 -2.33150001422 0.247596998775 -91.1392985486 0.501881019552 -1.98410997629 -3.67118014822 -1.82030005532 16.9023003088 -10.7458999089 8.06957309869 -41.2768514753 18.048547778 3.13530997292 -9.43579022516 1.45697998853 -3.19226990862 25.7378005757 2.25642001354 81.2047884008 -20.5322572772 13.3224060657 7.38259011065 31.7482014133 8.53023008462 -87.7503635881 -18.3724626692 -21.3279487023 -16.6404001202 31.9896998268 -0.016920499668 -1.35758995722 -0.885057993724 3.56726010066 2.05055000111 16.3586001754 11.4589998328 3.95772195183 -41.5747194401 18.2344979706 
1.61443 0.980521837652 0.0205932 -2.27481008444 0.264353000274 -91.0935977529 0.527671013445 -2.02477991082 -3.63769984157 -1.82480008277 16.9128000171 -10.8284999479 8.07260399513 -41.2839207211 18.0494117969 3.09007000151 -9.48752976189 1.40604001082 -3.1014900778 25.7350001982 2.17151990839 81.2174857225 -20.6300450955 13.3655404179 7.45649958766 31.6733015588 8.39177958882 -87.8441079345 -18.6579184727 -21.3536660721 -16.7534004774 32.2243987871 0.254543007676 -1.34709003547 -0.94871797147 3.52835000706 2.0666999834 16.3957000554 11.4319002035 3.9403839435 -41.5974195738 18.237347867 
1.6138 0.980521837652 0.0207538 -2.17345007716 0.270234993769 -90.9939999344 0.531317000441 -2.08349008249 -3.65261014453 -1.82066995275 16.9076005356 -10.9159997938 8.08584090174 -41.2936810614 18.0506036649 2.99964000445 -9.69000986606 1.31391996882 -2.93920008737 25.8766993027 2.0234700086 81.2974672377 -20.9028087 13.530649142 7.57349987437 31.6713003134 8.09092000117 -88.123804181 -19.3456502202 -21.4904491479 -16.9624008509 32.8383986425 0.83112201756 -1.36164997107 -1.03524995823 3.44257008816 2.09576990884 16.4106991509 11.4046998289 3.92755599447 -41.6149424241 18.239550603 
1.61312 0.980521837652 0.0209952 -2.09541004325 0.258945011236 -90.8800996998 0.49582397578 -2.09605997844 -3.74835018678 -1.80315990904 16.860099985 -10.9361001867 8.1027533039 -41.2894975705 18.0500931083 2.97652002755 -9.82518016351 1.2740200314 -2.8524699184 25.8830001522 1.9518699893 81.289537388 -21.1144813851 13.4688393451 7.59193967758 31.6188000643 7.99479021124 -88.1630299574 -19.5290322617 -21.3638430539 -16.9986008535 33.0763009615 0.966384042315 -1.40562998602 -1.07583003308 3.35295992724 2.12546991923 16.3852003471 11.3987003615 3.95865811463 -41.6124562352 18.2392381219 
1.61262 0.980521837652 0.0212639 -2.04238002765 0.243648002177 -90.8225007145 0.455103988774 -2.0947799583 -3.81730009268 -1.79364993784 16.8111002079 -10.9215996951 8.10702131836 -41.2749595129 18.0483172591 3.06641001278 -9.78707026927 1.30385002883 -2.94055993534 25.7009004788 2.00566989529 81.1528584726 -21.0680139006 13.1354697646 7.50010010022 31.355899253 8.25233017786 -87.7992199313 -18.8777224979 -20.9154667481 -16.7953993106 32.5756993218 0.401277989328 -1.45097998751 -1.0880600204 3.31487991507 2.13701998256 16.3504005333 11.4171000373 4.02951449708 -41.6015040269 18.2378618387 
1.61225 0.980521837652 0.0215036 -1.97478996972 0.237625989804 -90.8451974331 0.442318995225 -2.13905004285 -3.78639988999 -1.80664010387 16.7956998389 -10.922199898 8.10255693596 -41.2660973424 18.0472346741 3.19945996338 -9.77534966465 1.32166999237 -3.15459992124 25.7259006787 2.09194009371 81.0951638646 -20.9022674075 13.0214226809 7.44330024709 31.1030012537 8.48565968519 -87.5676013863 -18.4247170314 -20.7066593275 -16.6253002795 32.2015996157 -0.0562093019088 -1.46907998881 -1.12121002337 3.34115992168 2.12300998391 16.3227007011 11.4336999583 4.07646692498 -41.6048883856 18.238287018 
1.61193 0.980521837652 0.0217153 -1.90410007314 0.248037012368 -90.8888969834 0.454864985513 -2.19182990277 -3.73004015716 -1.82621008994 16.7820992247 -10.9318996204 8.10651503059 -41.266694984 18.0473080986 3.29865010494 -9.88562989899 1.29396994675 -3.33167001415 26.0191002092 2.12467996516 81.1987368532 -20.9234614845 13.3116152206 7.52060005924 31.1929002036 8.31582020129 -87.903919901 -19.0653358416 -21.0074984245 -16.7053996154 32.8322002459 0.290820997164 -1.45659002742 -1.16120003391 3.38713990139 2.10011006717 16.2942000293 11.4194001035 4.06776014134 -41.6276875571 18.2411522824 
1.61168 0.980521837652 0.0219379 -1.87872997579 0.264610999998 -90.8992993615 0.461929001941 -2.18929995801 -3.73221002289 -1.83433993605 16.7523998546 -10.9181000769 8.14166574538 -41.2706769843 18.0477947496 3.36319005651 -9.87318017168 1.29535999697 -3.36852998378 26.0049992836 2.1356400709 81.2416782525 -21.1507889631 13.4794389449 7.64909982319 31.4962015838 7.91832026707 -88.3894985397 -19.944316301 -21.284448935 -16.9106997339 33.7527014252 0.969761037251 -1.4445999505 -1.15972001729 3.40374003584 2.08876000032 16.2636998195 11.4043002628 4.06637318605 -41.6411293694 18.2428427542 
1.61153 0.980521837652 0.0221923 -1.89069006392 0.265166006229 -90.8958023047 0.442320996257 -2.16991993657 -3.7481000311 -1.83660990673 16.7587007042 -10.8929999855 8.20002373542 -41.2783438716 18.0487304855 3.43173996946 -9.57694974473 1.36901003351 -3.34953992346 25.3964004003 2.19182990277 81.0862504678 -21.3504610058 13.1451020389 7.68174983497 31.6565983312 7.7319798999 -88.3979748045 -19.9300429132 -21.0722674009 -17.0297004123 33.856100244 1.21885995727 -1.46957998 -1.13163001056 3.38054001767 2.0934499924 16.2489995449 11.452500054 4.1210215296 -41.629381444 18.2413657258 
1.61141 0.980521837652 0.0224631 -1.88638000111 0.248537990735 -90.9153024948 0.409659992142 -2.19833992682 -3.71103985155 -1.84437006884 16.8173993499 -10.8952001602 8.22439470415 -41.2934829859 18.0505780517 3.52835000706 -9.25511037727 1.44368000939 -3.44914990821 24.7916998474 2.28922007604 80.9745017428 -21.4121734725 12.7421516137 7.59739016853 31.6765015025 7.83740984616 -88.05805678 -19.2756800548 -20.7486223022 -17.0652003205 33.2850008067 1.07295996625 -1.52421999926 -1.13111998752 3.34142992759 2.10709991201 16.2595999985 11.5471997731 4.16177385328 -41.625696557 18.2409029805 
1.61123 0.980521837652 0.0227196 -1.85939008172 0.23727599597 -90.9471994782 0.389526008531 -2.23468998014 -3.66458986944 -1.85368004357 16.8515007769 -10.9135998361 8.18992359319 -41.3118049684 18.0528183537 3.6362701976 -9.2203703276 1.44215004702 -3.69050019206 24.8505999837 2.36837001569 81.1582133409 -21.4172841615 12.8449980409 7.48765037291 31.7749996605 7.97541040324 -87.8519011803 -18.8114064837 -20.8077734479 -17.0336994881 32.7892998277 0.8507259945 -1.56268997254 -1.14973001186 3.32004994138 2.11804998591 16.2727003013 11.5881996911 4.1202535602 -41.6547692572 18.2445588392 
1.611 0.980521837652 0.0229512 -1.84746990751 0.242264995591 -90.9598011772 0.380143009478 -2.21414007537 -3.67969995543 -1.85544009794 16.8166992555 -10.8938998629 8.16688195002 -41.3251477429 18.0544490614 3.69667980571 -9.4100498035 1.37414003918 -3.90491007539 25.4276007044 2.3850200959 81.52177065 -21.4449976541 13.3804831643 7.42605999585 31.9595001454 7.99079028171 -87.884925145 -18.6818617008 -21.1277165841 -16.8744997313 32.5057001281 0.518025985924 -1.5667199976 -1.13509003498 3.33062008601 2.11676996577 16.2551006114 11.5478998675 4.07042348823 -41.6822471082 18.24801833 
1.61078 0.980521837652 0.0231891 -1.85478994931 0.251393009809 -90.9476024594 0.363056997785 -2.16966999434 -3.73453015277 -1.84733992047 16.7720998278 -10.8349997266 8.20610431133 -41.3306255546 18.05511842 3.67231011764 -9.51203989573 1.30807001852 -3.93253989813 25.851200499 2.34158009278 81.7384584014 -21.4497582959 13.8060978646 7.39896036654 32.0368998491 8.00009982955 -87.9445253757 -18.5208929251 -21.3300455704 -16.6633000369 32.1452983663 0.0899715006053 -1.56711999055 -1.09226005313 3.35002998953 2.11220996073 16.2104994761 11.5138001481 4.10052669322 -41.6808537496 18.2478441602 
1.61065 0.980521837652 0.0234655 -1.85124999033 0.259093994737 -90.9326033639 0.342247012209 -2.15896004428 -3.77233012718 -1.83499008468 16.7598003646 -10.7983002665 8.23487306811 -41.3322204038 18.0553130803 3.61627994144 -9.34838002548 1.31813995851 -3.80454001865 25.7144993854 2.30835997364 81.6271126576 -21.3343724952 13.7391517655 7.35852991552 31.8800991963 8.17287970988 -87.8992139007 -18.203480374 -21.3200051923 -16.608600467 31.7792002268 -0.106895001821 -1.5847900101 -1.07131997379 3.34861998235 2.12202003337 16.1733005583 11.5331995928 4.14369690387 -41.6832409007 18.2481446885 
1.61054 0.980521837652 0.0237513 -1.83138993466 0.268226998194 -90.9457992894 0.331502991243 -2.16754004254 -3.78620992535 -1.82945997933 16.7474001562 -10.7939998086 8.19775867394 -41.3319198755 18.0552772218 3.61728995567 -9.00368001486 1.42312999789 -3.70670993851 25.1850999606 2.37160005484 81.3083750498 -21.0907003739 13.2645868069 7.3079301666 31.4913999609 8.4827500246 -87.6928192444 -17.688316771 -21.1786697953 -16.6970001903 31.4658004118 -0.0982168996353 -1.60242000901 -1.07425001823 3.33938001707 2.13498010388 16.1524001795 11.5509999196 4.112970871 -41.7052443551 18.2509177453 
